<?xml version="1.0" encoding="utf-8"?>
<!-- Generator: Adobe Illustrator 17.1.0, SVG Export Plug-In . SVG Version: 6.00 Build 0)  -->
<!DOCTYPE svg PUBLIC "-//W3C//DTD SVG 1.1//EN" "http://www.w3.org/Graphics/SVG/1.1/DTD/svg11.dtd">
<svg version="1.1" xmlns="http://www.w3.org/2000/svg" xmlns:xlink="http://www.w3.org/1999/xlink" x="0px" y="0px"
	 viewBox="0 0 107.1 101.2" enable-background="new 0 0 107.1 101.2" xml:space="preserve">
<g id="Layer_1" display="none">
	<g display="inline">
		<polygon fill="#8AC2B4" points="7.3,68.1 11.7,67.4 16.6,67.1 44.2,68.1 71.6,71.6 74.4,76.6 67.3,78.4 59.3,78.5 51.3,78.2 
			49.5,79.3 50.4,81.3 54,82.4 57.8,82.9 67.8,82.3 77.3,78.7 81,76.8 84.5,74.4 91.5,73 91.9,79.1 79.8,87.6 65.9,92.9 55.9,93.7 
			46,91.9 34,87.5 21.7,84.3 14.4,86.4 7.3,89.3 7.3,78.7 		"/>
	</g>
	<g display="inline">
		<polygon fill="#8AC2B4" points="42,63.8 42.5,62.8 42.9,61.7 44.1,60.7 45.2,59.6 47.7,58.6 50.3,57.6 52,56.2 53.7,54.8 56,54.6 
			58.3,54.4 59.7,55.8 61.1,57.3 60.9,50.4 59.8,43.5 52.3,34.1 41.2,29.2 41,29.4 41.3,29.6 49.4,35.8 55.8,43.8 55.8,44.1 
			55.4,44.2 46.7,43.2 39.2,38.3 32.6,30 28.3,20.4 28.4,20.3 28.4,20.2 40.2,21.8 50.9,26.7 57.3,32.8 62.5,40 67.1,25.5 
			78.1,15.5 90,13.6 102.1,14.3 102.4,14.4 102.4,14.8 90,31.6 70.7,39.6 70.5,39.4 70.6,39.1 77.7,29 87.8,21.9 88,21.7 87.7,21.6 
			74.1,27.2 66.2,39.3 65.9,48.6 64.2,57.6 62.5,61.6 64.5,61 67,57 69.3,52.9 71.9,53.2 74.3,54.2 76.7,54.7 79.1,55.2 80.8,58.1 
			82.5,61.1 83.2,63.3 83.9,65.6 85.2,67.4 86.5,69.3 84.7,70.1 83,70.9 79.9,69.7 76.7,68.5 70.4,67 64.1,65.8 56.7,65.1 
			49.2,64.4 45.6,64.1 		"/>
	</g>
</g>
<g id="Layer_5">
	<g id="Layer_4_1_">
		<g id="no_crinkle">
			<path fill="#8CC2B5" d="M91,20.3c-1.4,0.3-32.8,7.2-38.5,8.5c-0.4,0.1-0.7,0.5-0.7,1c0.3,2.9,1.5,12.4,1.5,14.4
				c0,8.9-9.2,6.1-12.4,4.5c-2.7-1.4-19.7-8.9-22.7-10.6c-0.3-0.2-0.4-0.4-0.4-0.7c0,0-0.1-6.1-0.2-8c-0.1-1.6-2.1-3.1-3.8-0.7
				c-0.3,0.5-9.4,15.3-10,16.2c-1.6,2.5,0.9,3.6,2.2,2.8c2.6-1.4,8.5-4.2,8.5-4.2c0.3-0.1,0.6-0.1,0.8,0
				c6.4,3.9,22.8,13.7,30.2,17.7c6.1,3.1,9.8,5.4,10.5,9.7c0.2,1.7,0.6,5.6,0.7,7.6c0,0.5,0.6,0.9,1.3,0.8l46.3-12.4
				c0.5-0.1,0.8-0.7,0.6-1.3L100.2,53c-0.1-0.3-0.1-0.6,0.1-0.8c1.4-1.8,2.2-2.8,2.8-3.8c2.6-3.6,3.8-9.2,2.3-15.3
				C103.3,24.6,96.9,19,91,20.3z M100,43.7c-0.4,0.5-1,1-1.7,1.5c-0.4,0.2-1,0-1.4-0.5l-6.2-16.6c-0.1-0.4,0-0.9,0.4-1.3
				c0.3-0.2,0.7-0.3,1.3-0.4c3.7-0.8,7.7,2.6,9,7.9C102.4,37.9,101.7,41.6,100,43.7z"/>
			<path fill="#8CC2B5" d="M11.2,67.4L6.2,56L1.3,67.4c-0.1,0.2-0.5,1.4-0.5,2.5c0,3,2.4,5.5,5.5,5.5s5.5-2.4,5.5-5.5
				C11.7,68.8,11.3,67.6,11.2,67.4z"/>
		</g>
	</g>
</g>
<g id="Layer_4" display="none">
	<g id="no_crinkle_1_" display="inline">
		<g>
			<path fill="#8BC2B4" d="M96.2,50.7C95.6,38.2,90.7,27.1,82.9,19C75.2,10.9,64.6,6,53,6s-22.1,5-29.7,13
				C15.5,27.1,10.6,38.1,10,50.6l2.8,0.1c0.6-11.8,5.3-22.3,12.6-29.8C32.6,13.3,42.3,8.7,53,8.7s20.5,4.7,27.8,12.2
				c7.3,7.6,12,18.1,12.5,29.8L96.2,50.7L96.2,50.7z"/>
		</g>
		<path fill="#8BC2B4" d="M94,55c-2.5,1.1-5.8,1.9-9.9,2.7c-0.7,0.1-1.4,0.2-2.1,0.3c-6.7,1.1-15,1.7-24.1,1.9
			c-1.6,0-3.1,0.1-4.7,0.1c-2.3,0-4.6,0-6.8-0.1c-10.5-0.3-19.6-1.3-26.4-2.7c-1.6-0.4-3.1-0.7-4.4-1.1c-2.1-0.7-3.7-1.4-5.2-2.3
			c1.2,22.6,19.9,40.6,42.8,40.6s41.5-17.9,42.8-40.4C95.3,54.4,94.6,54.6,94,55z"/>
		<path fill="#8BC2B4" d="M59.7,54.5c-0.1-2.7-0.7-5.2-1.7-7.6c-1.9-4.1-5-7.4-8.9-9.5l0,0c-2.3-1.3-5-2.1-7.8-2.3
			c2.8,0.2,4.5,2.3,4.5,2.3c-1.4,0.4-3.5,0.1-3.5,0.1c2,1.4,1.3,4.9,1.3,4.9c-2.8-0.1-3.9-2.2-3.9-2.2c-0.4,2.2-5.7,3.7-5.7,3.7
			c-0.4-2.1,1.7-5,1.7-5c-4.2,1.2-5,0.1-5,0.1c1-1.7,3.8-3,5.3-3.6c-2.1,0.4-4.3,1.2-6.1,2.2C24,40.8,20,46.8,19.5,53.8
			c7.2,1.6,17,2.6,28.1,2.9c2.3,0.1,4.8,0.1,7.2,0.1c1.7,0,3.3-0.1,5-0.1c0-0.5,0.2-1,0.2-1.6C59.7,54.9,59.7,54.6,59.7,54.5z"/>
		<path fill="#8BC2B4" d="M36.3,32.3c4.4-0.5,8.9,0.4,12.7,2.6c0.2,0.1,0.3,0.2,0.5,0.3c0.3-0.6,0.7-1.1,1.1-1.6
			c2.2-2.9,5.4-5,9-6.1c-0.1-0.4-0.3-0.8-0.5-1.2c-1.9-4.3-6.3-7.2-11.3-7.1c-0.1,0-0.2,0-0.3,0c0.1,0,0.1,0,0.2,0
			c0,0,0,1.4-2.7,2.2c0,0,1.7,1,1.7,2.4c0,0-3.5,1-4-0.2c0,0-0.4,1.7-2.1,2.7c0,0-1-1.9,0.2-3.4c0,0-1.3,0.9-2.1,1.2
			c0,0,0.1-0.2,0.3-0.5c0.1-0.1,0.1-0.2,0.2-0.4c-1.7,2-3.4,4.7-3.5,7.6c0,0.5-0.4,0.9-0.4,1.4l0,0h0.5
			C35.9,32.3,36.3,32.3,36.3,32.3z"/>
		<path fill="#8BC2B4" d="M49.4,35.4L49.4,35.4C49.3,35.4,49.3,35.4,49.4,35.4C49.3,35.4,49.4,35.4,49.4,35.4z"/>
		<path fill="#8BC2B4" d="M75.1,30.7c1.7,1.2,3.4,3.4,3.4,3.4c-1.4-0.3-2.9-1.4-2.9-1.4c1.2,1.9-1,4.6-1,4.6c-2.3-1.3-3-4.6-3-4.6
			c-1.3,1.7-5.4,1.7-5.4,1.7c0.6-1.9,3.4-3.4,3.4-3.4c-3.9-0.8-4.5-2-4.5-2c1.4-0.8,6,0,7,0.2c-2-0.8-4.3-1.2-6.6-1.1
			c-1.3,0-2.4,0.3-3.7,0.6c-0.1,0-0.2,0-0.4,0.1c-0.1,0-0.1,0-0.2,0c-3.7,1-6.8,3.1-9.1,5.9c-0.4,0.5-0.9,1.1-1.2,1.7l0,0
			c2.5,1.4,4.7,3.2,6.4,5.4c1,1.3,1.7,2.6,2.4,4.1c1.1,2.3,1.7,5,1.7,7.6c8.2-0.5,15.7-1.3,21.6-2.4c0.5-1.7,0.8-3.5,0.8-5.4
			C83.9,39.2,80.3,33.7,75.1,30.7z"/>
	</g>
</g>
<g id="Layer_3" display="none">
	<g display="inline">
		<g>
			<g>
				<polygon fill="#8AC2B4" points="97.5,49 93.6,31.6 83.9,16.6 70,6.8 53.3,3.2 36.7,6.7 22.9,16.5 13.1,31.5 9.2,48.9 10.6,48.9 
					12,49 15.7,32.6 24.9,18.5 37.9,9.4 53.3,6.1 68.9,9.4 81.8,18.6 91,32.7 94.7,49.1 96.1,49.1 97.5,49 97.5,49 				"/>
			</g>
		</g>
	</g>
	<g display="inline">
		<polygon fill="#8AC2B4" points="95.2,55.4 90.2,57.1 85.1,58.2 84,58.4 82.9,58.6 70.6,60 58.2,60.6 55.8,60.6 53.4,60.7 50,60.6 
			46.5,60.5 32.9,59.7 19.4,57.7 17.2,57.2 14.9,56.6 12.2,55.6 9.6,54.2 10.5,60.8 12.3,67.1 21.6,82.1 36,92.2 44.5,94.9 
			53.4,95.8 62.7,94.8 71.5,91.9 89.6,76.7 97.2,54.3 96.2,54.9 		"/>
	</g>
	<g display="inline">
		<polygon fill="#8AC2B4" points="60.2,52.9 59.7,48.9 58.4,45.1 54.6,39.5 49.3,35.3 49.2,35.3 49.2,35.3 45.4,33.7 41.3,32.9 
			43.8,33.6 45.8,35.3 44,35.5 42.2,35.4 43.6,37.7 43.5,40.4 41.2,39.7 39.5,38.1 37.1,40.5 33.7,41.9 34.1,39.2 35.4,36.8 
			32.8,37.3 30.3,36.9 32.7,34.6 35.7,33.2 32.5,34.1 29.5,35.5 22.1,42.4 18.9,52.1 26.8,53.9 34.8,55.2 41.2,55.2 47.6,55.1 
			51.7,55.6 55.7,56.1 57.9,55.6 60,55.1 60.1,54.3 60.2,53.5 60.2,53.2 		"/>
	</g>
	<g display="inline">
		<polygon fill="#8AC2B4" points="75.9,28.6 77.8,30.2 79.5,32 77.9,31.5 76.5,30.6 76.6,33.1 75.5,35.3 73.5,33.2 72.4,30.6 
			69.7,32 66.8,32.4 68.2,30.4 70.3,29 67.8,28.3 65.7,26.9 69.3,26.7 72.9,27.1 69.6,26.3 66.1,26 64.3,26.2 62.4,26.6 62.2,26.6 
			62,26.7 62,26.7 61.9,26.7 62.3,28.5 62.4,30.4 61.3,35.7 57.9,40 59.3,42 60.4,44.1 61.7,48 62.2,52 65.9,52.4 69.7,53 
			73.6,52.7 77.5,52 80.9,50.8 84.3,49.4 84.9,46.7 85.1,43.9 82.5,35.1 		"/>
	</g>
	<g display="inline">
		<polygon fill="#8AC2B4" points="36.3,30.2 43,30.5 49.3,32.9 49.6,33.1 49.8,33.2 50.4,32.4 50.9,31.7 55.1,27.8 60.2,25.4 
			60,24.8 59.7,24.2 55.1,18.8 48.2,16.9 48,16.9 47.9,16.9 48,17 48.1,17 47,18.5 45.2,19.2 46.4,20.3 47,21.7 44.8,22.1 
			42.9,21.5 42.1,23.1 40.7,24.3 40.3,22.5 40.9,20.8 39.8,21.5 38.6,22 38.8,21.7 38.9,21.5 39,21.3 39.1,21.1 36.9,24.7 36,28.9 
			36,29.6 36.1,30.2 36.1,30.2 36.1,30.2 36.2,30.2 36.2,30.2 36.2,30.2 		"/>
	</g>
	<g display="inline">
		<polygon fill="#8AC2B4" points="49.6,33.4 49.6,33.4 49.6,33.4 49.6,33.4 49.6,33.4 49.6,33.4 		"/>
	</g>
	<g display="inline">
		<polygon fill="#8AC2B4" points="62.4,30.4 62.3,28.5 61.9,26.7 56.7,29 52.5,32.7 51.9,33.5 51.3,34.4 51.3,34.4 51.3,34.4 
			54.9,36.9 57.9,40 61.3,35.7 		"/>
	</g>
</g>
<g id="Layer_2" display="none">
	<g display="inline">
		<g>
			<path fill="#8AC2B4" d="M83.5,21.2l-7,4l-7.7,2.5l-6.9,2.2l-6.6,2.7l-3.2,2l-3.3,1.8l-0.4,0.5l-0.1,0.6l1.3,4l1.2,4l0.7,2.3
				l0.6,2.3l0.3,3.4l-0.7,3.2l-4.9,1.8l-5.4-0.9l-5.5-1.1l-5.3-1.8l-6.3-1.5L18,51.5l-0.4-0.3l-0.2-0.4l-0.8-3.8l-0.9-3.8l-1.8-1.5
				l-1.8,1.5l-3.2,8.6l-3.2,8.6L6,62.7l2.3,0l2.5-1.9l2.5-1.9l1.1-0.8l1.1-0.8l0.4-0.2l0.4,0l3.4,1.2l3.4,1.2l7.5,2.2l7.2,3l5.1,1.8
				l5.2,1.6l6.9,2l4.7,5.2l1.1,3.5l1,3.5l0.5,0.6l0.8,0l6.5-2.1l6.5-2.1l9.3-4.4l9.3-4.4l4.9-3.6l4.9-3.6l0.5-0.6l-0.1-0.7l-1-2.2
				l-1-2.2l-2.4-3.4l-2.4-3.4L98.1,50l0.1-0.5l1-2.1l1-2.1l1.3-7.5l-2-7.4l-6.4-7.9L83.5,21.2z M96.3,41.5l-0.6,0.9L95,43.2
				l-0.7,0.2l-0.6-0.4l-2.4-4.3l-2.4-4.3l-2.1-2.9l-2.1-2.9l-0.1-0.6l0.3-0.6l0.5-0.4l0.5-0.3l6,1l4,4.9l1.2,4.6L96.3,41.5z"/>
		</g>
	</g>
	<g display="inline">
		<polygon fill="#8AC2B4" points="11,79.1 9.1,74.5 7.1,70 5.1,74.5 3.2,79 2.8,80 2.7,81 4,84.1 7.1,85.4 10.2,84.1 11.5,81 
			11.4,80 		"/>
	</g>
	<path display="inline" fill="#8AC2B4" d="M88.9,35.1"/>
</g>
</svg>
