<?xml version="1.0" encoding="iso-8859-1"?>
<!-- Generator: Adobe Illustrator 19.0.0, SVG Export Plug-In . SVG Version: 6.00 Build 0)  -->
<svg version="1.1" id="Layer_1" xmlns="http://www.w3.org/2000/svg" xmlns:xlink="http://www.w3.org/1999/xlink" x="0px" y="0px"
	 viewBox="-1 6.8 107.1 101.2" style="enable-background:new -1 6.8 107.1 101.2;" xml:space="preserve">
<g id="Layer_1_1_" style="display:none;">
	<g style="display:inline;">
		<polygon style="fill:#8AC2B4;" points="6.3,74.9 10.7,74.2 15.6,73.9 43.2,74.9 70.6,78.4 73.4,83.4 66.3,85.2 58.3,85.3 50.3,85 
			48.5,86.1 49.4,88.1 53,89.2 56.8,89.7 66.8,89.1 76.3,85.5 80,83.6 83.5,81.2 90.5,79.8 90.9,85.9 78.8,94.4 64.9,99.7 
			54.9,100.5 45,98.7 33,94.3 20.7,91.1 13.4,93.2 6.3,96.1 6.3,85.5 		"/>
	</g>
	<g style="display:inline;">
		<polygon style="fill:#8AC2B4;" points="41,70.6 41.5,69.6 41.9,68.5 43.1,67.5 44.2,66.4 46.7,65.4 49.3,64.4 51,63 52.7,61.6 
			55,61.4 57.3,61.2 58.7,62.6 60.1,64.1 59.9,57.2 58.8,50.3 51.3,40.9 40.2,36 40,36.2 40.3,36.4 48.4,42.6 54.8,50.6 54.8,50.9 
			54.4,51 45.7,50 38.2,45.1 31.6,36.8 27.3,27.2 27.4,27.1 27.4,27 39.2,28.6 49.9,33.5 56.3,39.6 61.5,46.8 66.1,32.3 77.1,22.3 
			89,20.4 101.1,21.1 101.4,21.2 101.4,21.6 89,38.4 69.7,46.4 69.5,46.2 69.6,45.9 76.7,35.8 86.8,28.7 87,28.5 86.7,28.4 73.1,34 
			65.2,46.1 64.9,55.4 63.2,64.4 61.5,68.4 63.5,67.8 66,63.8 68.3,59.7 70.9,60 73.3,61 75.7,61.5 78.1,62 79.8,64.9 81.5,67.9 
			82.2,70.1 82.9,72.4 84.2,74.2 85.5,76.1 83.7,76.9 82,77.7 78.9,76.5 75.7,75.3 69.4,73.8 63.1,72.6 55.7,71.9 48.2,71.2 
			44.6,70.9 		"/>
	</g>
</g>
<g id="Layer_5">
	<g id="Layer_4_1_">
		<g id="no_crinkle">
			<path style="fill:#8CC2B5;" d="M0.456,39.9c-1.5,6.1-0.3,11.7,2.3,15.3c0.6,1,1.4,2,2.8,3.8c0.2,0.2,0.2,0.5,0.1,0.8l-4.7,12.6
				c-0.2,0.6,0.1,1.2,0.6,1.3l46.3,12.4c0.7,0.1,1.3-0.3,1.3-0.8c0.1-2,0.5-5.9,0.7-7.6c0.7-4.3,4.4-6.6,10.5-9.7
				c7.4-4,23.8-13.8,30.2-17.7c0.2-0.1,0.5-0.1,0.8,0c0,0,5.9,2.8,8.5,4.2c1.3,0.8,3.8-0.3,2.2-2.8c-0.6-0.9-9.7-15.7-10-16.2
				c-1.7-2.4-3.7-0.9-3.8,0.7c-0.1,1.9-0.2,8-0.2,8c0,0.3-0.1,0.5-0.4,0.7c-3,1.7-20,9.2-22.7,10.6c-3.2,1.6-12.4,4.4-12.4-4.5
				c0-2,1.2-11.5,1.5-14.4c0-0.5-0.3-0.9-0.7-1c-5.7-1.3-37.1-8.2-38.5-8.5C8.956,25.8,2.556,31.4,0.456,39.9z M4.456,41.1
				c1.3-5.3,5.3-8.7,9-7.9c0.6,0.1,1,0.2,1.3,0.4c0.4,0.4,0.5,0.9,0.4,1.3l-6.2,16.6c-0.4,0.5-1,0.7-1.4,0.5c-0.7-0.5-1.3-1-1.7-1.5
				C4.156,48.4,3.456,44.7,4.456,41.1z"/>
			<path style="fill:#8CC2B5;" d="M94.056,76.7c0,3.1,2.4,5.5,5.5,5.5c3.1,0,5.5-2.5,5.5-5.5c0-1.1-0.4-2.3-0.5-2.5l-4.9-11.4
				l-5,11.4C94.556,74.4,94.156,75.6,94.056,76.7z"/>
		</g>
	</g>
</g>
<g id="Layer_4" style="display:none;">
	<g id="no_crinkle_1_" style="display:inline;">
		<g>
			<path style="fill:#8BC2B4;" d="M95.2,57.5C94.6,45,89.7,33.9,81.9,25.8c-7.7-8.1-18.3-13-29.9-13s-22.1,5-29.7,13
				C14.5,33.9,9.6,44.9,9,57.4l2.8,0.1c0.6-11.8,5.3-22.3,12.6-29.8c7.2-7.6,16.9-12.2,27.6-12.2s20.5,4.7,27.8,12.2
				c7.3,7.6,12,18.1,12.5,29.8L95.2,57.5L95.2,57.5z"/>
		</g>
		<path style="fill:#8BC2B4;" d="M93,61.8c-2.5,1.1-5.8,1.9-9.9,2.7c-0.7,0.1-1.4,0.2-2.1,0.3c-6.7,1.1-15,1.7-24.1,1.9
			c-1.6,0-3.1,0.1-4.7,0.1c-2.3,0-4.6,0-6.8-0.1C34.9,66.4,25.8,65.4,19,64c-1.6-0.4-3.1-0.7-4.4-1.1c-2.1-0.7-3.7-1.4-5.2-2.3
			c1.2,22.6,19.9,40.6,42.8,40.6S93.7,83.3,95,60.8C94.3,61.2,93.6,61.4,93,61.8z"/>
		<path style="fill:#8BC2B4;" d="M58.7,61.3c-0.1-2.7-0.7-5.2-1.7-7.6c-1.9-4.1-5-7.4-8.9-9.5l0,0c-2.3-1.3-5-2.1-7.8-2.3
			c2.8,0.2,4.5,2.3,4.5,2.3c-1.4,0.4-3.5,0.1-3.5,0.1c2,1.4,1.3,4.9,1.3,4.9c-2.8-0.1-3.9-2.2-3.9-2.2c-0.4,2.2-5.7,3.7-5.7,3.7
			c-0.4-2.1,1.7-5,1.7-5c-4.2,1.2-5,0.1-5,0.1c1-1.7,3.8-3,5.3-3.6c-2.1,0.4-4.3,1.2-6.1,2.2C23,47.6,19,53.6,18.5,60.6
			c7.2,1.6,17,2.6,28.1,2.9c2.3,0.1,4.8,0.1,7.2,0.1c1.7,0,3.3-0.1,5-0.1c0-0.5,0.2-1,0.2-1.6C58.7,61.7,58.7,61.4,58.7,61.3z"/>
		<path style="fill:#8BC2B4;" d="M35.3,39.1c4.4-0.5,8.9,0.4,12.7,2.6c0.2,0.1,0.3,0.2,0.5,0.3c0.3-0.6,0.7-1.1,1.1-1.6
			c2.2-2.9,5.4-5,9-6.1c-0.1-0.4-0.3-0.8-0.5-1.2c-1.9-4.3-6.3-7.2-11.3-7.1c-0.1,0-0.2,0-0.3,0c0.1,0,0.1,0,0.2,0
			c0,0,0,1.4-2.7,2.2c0,0,1.7,1,1.7,2.4c0,0-3.5,1-4-0.2c0,0-0.4,1.7-2.1,2.7c0,0-1-1.9,0.2-3.4c0,0-1.3,0.9-2.1,1.2
			c0,0,0.1-0.2,0.3-0.5c0.1-0.1,0.1-0.2,0.2-0.4c-1.7,2-3.4,4.7-3.5,7.6c0,0.5-0.4,0.9-0.4,1.4l0,0h0.5
			C34.9,39.1,35.3,39.1,35.3,39.1z"/>
		<path style="fill:#8BC2B4;" d="M48.4,42.2L48.4,42.2C48.3,42.2,48.3,42.2,48.4,42.2C48.3,42.2,48.4,42.2,48.4,42.2z"/>
		<path style="fill:#8BC2B4;" d="M74.1,37.5c1.7,1.2,3.4,3.4,3.4,3.4c-1.4-0.3-2.9-1.4-2.9-1.4c1.2,1.9-1,4.6-1,4.6
			c-2.3-1.3-3-4.6-3-4.6c-1.3,1.7-5.4,1.7-5.4,1.7c0.6-1.9,3.4-3.4,3.4-3.4c-3.9-0.8-4.5-2-4.5-2c1.4-0.8,6,0,7,0.2
			c-2-0.8-4.3-1.2-6.6-1.1c-1.3,0-2.4,0.3-3.7,0.6c-0.1,0-0.2,0-0.4,0.1c-0.1,0-0.1,0-0.2,0c-3.7,1-6.8,3.1-9.1,5.9
			c-0.4,0.5-0.9,1.1-1.2,1.7l0,0c2.5,1.4,4.7,3.2,6.4,5.4c1,1.3,1.7,2.6,2.4,4.1c1.1,2.3,1.7,5,1.7,7.6c8.2-0.5,15.7-1.3,21.6-2.4
			c0.5-1.7,0.8-3.5,0.8-5.4C82.9,46,79.3,40.5,74.1,37.5z"/>
	</g>
</g>
<g id="Layer_3" style="display:none;">
	<g style="display:inline;">
		<g>
			<g>
				<polygon style="fill:#8AC2B4;" points="96.5,55.8 92.6,38.4 82.9,23.4 69,13.6 52.3,10 35.7,13.5 21.9,23.3 12.1,38.3 8.2,55.7 
					9.6,55.7 11,55.8 14.7,39.4 23.9,25.3 36.9,16.2 52.3,12.9 67.9,16.2 80.8,25.4 90,39.5 93.7,55.9 95.1,55.9 96.5,55.8 				"/>
			</g>
		</g>
	</g>
	<g style="display:inline;">
		<polygon style="fill:#8AC2B4;" points="94.2,62.2 89.2,63.9 84.1,65 83,65.2 81.9,65.4 69.6,66.8 57.2,67.4 54.8,67.4 52.4,67.5 
			49,67.4 45.5,67.3 31.9,66.5 18.4,64.5 16.2,64 13.9,63.4 11.2,62.4 8.6,61 9.5,67.6 11.3,73.9 20.6,88.9 35,99 43.5,101.7 
			52.4,102.6 61.7,101.6 70.5,98.7 88.6,83.5 96.2,61.1 95.2,61.7 		"/>
	</g>
	<g style="display:inline;">
		<polygon style="fill:#8AC2B4;" points="59.2,59.7 58.7,55.7 57.4,51.9 53.6,46.3 48.3,42.1 48.2,42.1 48.2,42.1 44.4,40.5 
			40.3,39.7 42.8,40.4 44.8,42.1 43,42.3 41.2,42.2 42.6,44.5 42.5,47.2 40.2,46.5 38.5,44.9 36.1,47.3 32.7,48.7 33.1,46 
			34.4,43.6 31.8,44.1 29.3,43.7 31.7,41.4 34.7,40 31.5,40.9 28.5,42.3 21.1,49.2 17.9,58.9 25.8,60.7 33.8,62 40.2,62 46.6,61.9 
			50.7,62.4 54.7,62.9 56.9,62.4 59,61.9 59.1,61.1 59.2,60.3 59.2,60 		"/>
	</g>
	<g style="display:inline;">
		<polygon style="fill:#8AC2B4;" points="74.9,35.4 76.8,37 78.5,38.8 76.9,38.3 75.5,37.4 75.6,39.9 74.5,42.1 72.5,40 71.4,37.4 
			68.7,38.8 65.8,39.2 67.2,37.2 69.3,35.8 66.8,35.1 64.7,33.7 68.3,33.5 71.9,33.9 68.6,33.1 65.1,32.8 63.3,33 61.4,33.4 
			61.2,33.4 61,33.5 61,33.5 60.9,33.5 61.3,35.3 61.4,37.2 60.3,42.5 56.9,46.8 58.3,48.8 59.4,50.9 60.7,54.8 61.2,58.8 
			64.9,59.2 68.7,59.8 72.6,59.5 76.5,58.8 79.9,57.6 83.3,56.2 83.9,53.5 84.1,50.7 81.5,41.9 		"/>
	</g>
	<g style="display:inline;">
		<polygon style="fill:#8AC2B4;" points="35.3,37 42,37.3 48.3,39.7 48.6,39.9 48.8,40 49.4,39.2 49.9,38.5 54.1,34.6 59.2,32.2 
			59,31.6 58.7,31 54.1,25.6 47.2,23.7 47,23.7 46.9,23.7 47,23.8 47.1,23.8 46,25.3 44.2,26 45.4,27.1 46,28.5 43.8,28.9 
			41.9,28.3 41.1,29.9 39.7,31.1 39.3,29.3 39.9,27.6 38.8,28.3 37.6,28.8 37.8,28.5 37.9,28.3 38,28.1 38.1,27.9 35.9,31.5 
			35,35.7 35,36.4 35.1,37 35.1,37 35.1,37 35.2,37 35.2,37 35.2,37 		"/>
	</g>
	<g style="display:inline;">
		<polygon style="fill:#8AC2B4;" points="48.6,40.2 48.6,40.2 48.6,40.2 48.6,40.2 48.6,40.2 		"/>
	</g>
	<g style="display:inline;">
		<polygon style="fill:#8AC2B4;" points="61.4,37.2 61.3,35.3 60.9,33.5 55.7,35.8 51.5,39.5 50.9,40.3 50.3,41.2 50.3,41.2 
			50.3,41.2 53.9,43.7 56.9,46.8 60.3,42.5 		"/>
	</g>
</g>
<g id="Layer_2" style="display:none;">
	<g style="display:inline;">
		<g>
			<path style="fill:#8AC2B4;" d="M82.5,28l-7,4l-7.7,2.5l-6.9,2.2l-6.6,2.7l-3.2,2l-3.3,1.8l-0.4,0.5l-0.1,0.6l1.3,4l1.2,4l0.7,2.3
				l0.6,2.3l0.3,3.4l-0.7,3.2l-4.9,1.8l-5.4-0.9l-5.5-1.1l-5.3-1.8L23.3,60L17,58.3L16.6,58l-0.2-0.4l-0.8-3.8L14.7,50l-1.8-1.5
				L11.1,50l-3.2,8.6l-3.2,8.6L5,69.5h2.3l2.5-1.9l2.5-1.9l1.1-0.8l1.1-0.8l0.4-0.2h0.4l3.4,1.2l3.4,1.2l7.5,2.2l7.2,3l5.1,1.8
				l5.2,1.6l6.9,2l4.7,5.2l1.1,3.5l1,3.5l0.5,0.6h0.8l6.5-2.1l6.5-2.1l9.3-4.4l9.3-4.4l4.9-3.6l4.9-3.6l0.5-0.6l-0.1-0.7l-1-2.2
				l-1-2.2l-2.4-3.4L97.1,57l0-0.2l0.1-0.5l1-2.1l1-2.1l1.3-7.5l-2-7.4l-6.4-7.9L82.5,28z M95.3,48.3l-0.6,0.9L94,50l-0.7,0.2
				l-0.6-0.4l-2.4-4.3l-2.4-4.3l-2.1-2.9l-2.1-2.9l-0.1-0.6l0.3-0.6l0.5-0.4l0.5-0.3l6,1l4,4.9l1.2,4.6L95.3,48.3z"/>
		</g>
	</g>
	<g style="display:inline;">
		<polygon style="fill:#8AC2B4;" points="10,85.9 8.1,81.3 6.1,76.8 4.1,81.3 2.2,85.8 1.8,86.8 1.7,87.8 3,90.9 6.1,92.2 9.2,90.9 
			10.5,87.8 10.4,86.8 		"/>
	</g>
	<path style="display:inline;fill:#8AC2B4;" d="M87.9,41.9"/>
</g>
</svg>
