<?xml version="1.0" encoding="utf-8"?>
<!-- Generator: Adobe Illustrator 17.1.0, SVG Export Plug-In . SVG Version: 6.00 Build 0)  -->
<!DOCTYPE svg PUBLIC "-//W3C//DTD SVG 1.1//EN" "http://www.w3.org/Graphics/SVG/1.1/DTD/svg11.dtd">
<svg version="1.1" id="mobile" xmlns="http://www.w3.org/2000/svg" xmlns:xlink="http://www.w3.org/1999/xlink" x="0px" y="0px"
	 viewBox="0 0 292 45.6" enable-background="new 0 0 292 45.6" xml:space="preserve">
<g>
	<g>
		<rect x="11" y="14.4" fill="#EA9F52" width="8.3" height="27.4"/>
		<path fill="#EA9F52" d="M39.6,14.4c-4.8,0-6.1,1.6-7.2,3.6v-3.6h-8.3v27.4h8.3V26.4c0-2.4,0-4.8,4.2-4.8s4.2,2.4,4.2,4.8v15.5h8.3
			V26.4C49.2,19.2,48,14.4,39.6,14.4z"/>
		<circle fill="#EA9F52" cx="15.2" cy="7.9" r="4.2"/>
	</g>
	<path id="f_6_" fill="#EA9F52" d="M181.7,41.8V25.2h7.2l1.2-7.2h-8.3v-3.6c0-2.4,1.2-3.6,3.6-3.6h3.6V3.7c-1.2,0-3.9,0-6,0
		c-6,0-8.3,3.6-8.3,9.5V18h-7.2v7.2h7.2v16.7H181.7z"/>
	<path fill="#EA9F52" d="M126,10.9c-1.4,0.6-2.9,1-4.5,1.2c1.6-1,2.9-2.5,3.4-4.3c-1.5,0.9-3.2,1.5-5,1.9c-1.4-1.5-3.5-2.5-5.7-2.5
		c-4.3,0-7.8,3.5-7.8,7.8c0,0.6,0.1,1.2,0.2,1.8c-6.5-0.3-12.3-3.4-16.1-8.2c-0.7,1.2-1.1,2.5-1.1,3.9c0,2.7,1.4,5.1,3.5,6.5
		c-1.3,0-2.5-0.4-3.5-1c0,0,0,0.1,0,0.1c0,3.8,2.7,7,6.3,7.7c-0.7,0.2-1.3,0.3-2.1,0.3c-0.5,0-1,0-1.5-0.1c1,3.1,3.9,5.4,7.3,5.4
		c-2.7,2.1-6,3.3-9.7,3.3c-0.6,0-1.3,0-1.9-0.1c3.5,2.2,7.6,3.5,12,3.5c14.4,0,22.3-11.9,22.3-22.3c0-0.3,0-0.7,0-1
		C123.6,13.9,125,12.5,126,10.9z"/>
	<path fill="#EA9F52" d="M278.2,3.7h-28.6c-2.7,0-4.8,2.1-4.8,4.8v28.6c0,2.7,2.1,4.8,4.8,4.8h28.6c2.7,0,4.8-2.1,4.8-4.8V8.5
		C283,5.8,280.9,3.7,278.2,3.7z M263.9,15.3c4.2,0,7.7,3.3,7.7,7.4c0,4.1-3.4,7.4-7.7,7.4c-4.2,0-7.7-3.3-7.7-7.4
		C256.3,18.6,259.7,15.3,263.9,15.3z M278.2,35.9c0,0.8-0.4,1.2-1.2,1.2h-26.2c-0.8,0-1.2-0.4-1.2-1.2V19.2l3,0.6
		c-0.3,1-0.5,2.1-0.5,3.3c0,6.3,5.3,11.5,11.9,11.5c6.5,0,11.9-5.1,11.9-11.5c0-1.1-0.2-2.2-0.5-3.3l2.9-0.6V35.9z M278.2,14.4
		c0,0.7-0.5,1.2-1.2,1.2h-4.8c-0.7,0-1.2-0.5-1.2-1.2V9.7c0-0.7,0.5-1.2,1.2-1.2h4.8c0.7,0,1.2,0.5,1.2,1.2V14.4z"/>
</g>
</svg>
