<?xml version="1.0" encoding="iso-8859-1"?>
<!-- Generator: Adobe Illustrator 19.0.0, SVG Export Plug-In . SVG Version: 6.00 Build 0)  -->
<svg version="1.1" id="Layer_1" xmlns="http://www.w3.org/2000/svg" xmlns:xlink="http://www.w3.org/1999/xlink" x="0px" y="0px"
	 viewBox="0 0 11.4 136.901" style="enable-background:new 0 0 11.4 136.901;" xml:space="preserve">
<g id="XMLID_2_">
	<path id="XMLID_10_" style="fill:#89C2B3;" d="M7.748,4.986C7.845,6.263,7.063,7.24,5.921,7.371C4.702,7.51,3.719,6.565,3.577,5.06
		C4.651,4.735,5.1,5.569,5.72,6.236C6.29,5.705,6.704,4.875,7.748,4.986z"/>
	<path id="XMLID_9_" style="fill:#89C2B3;" d="M7.748,7.318c0.097,1.277-0.685,2.254-1.828,2.385
		c-1.218,0.14-2.201-0.806-2.344-2.31C4.651,7.067,5.1,7.901,5.72,8.568C6.29,8.037,6.704,7.207,7.748,7.318z"/>
	<path id="XMLID_8_" style="fill:#89C2B3;" d="M7.748,9.65c0.097,1.277-0.685,2.254-1.828,2.385c-1.218,0.14-2.201-0.806-2.344-2.31
		C4.651,9.399,5.1,10.234,5.72,10.9C6.29,10.369,6.704,9.54,7.748,9.65z"/>
	<path id="XMLID_7_" style="fill:#89C2B3;" d="M7.748,11.983c0.097,1.277-0.685,2.254-1.828,2.385
		c-1.218,0.14-2.201-0.806-2.344-2.31c1.074-0.326,1.523,0.509,2.143,1.176C6.29,12.702,6.704,11.872,7.748,11.983z"/>
	<path id="XMLID_6_" style="fill:#89C2B3;" d="M7.748,14.315c0.097,1.277-0.685,2.254-1.828,2.385
		c-1.218,0.14-2.201-0.806-2.344-2.31c1.074-0.326,1.523,0.509,2.143,1.176C6.29,15.034,6.704,14.204,7.748,14.315z"/>
	<path id="XMLID_5_" style="fill:#89C2B3;" d="M7.748,16.647c0.097,1.277-0.685,2.254-1.828,2.385
		c-1.218,0.14-2.201-0.806-2.344-2.31c1.074-0.326,1.523,0.509,2.143,1.176C6.29,17.366,6.704,16.537,7.748,16.647z"/>
	<path id="XMLID_4_" style="fill:#89C2B3;" d="M5.706,2.16C6.717,3.265,6.7,4.487,5.662,5.391C4.605,4.316,4.62,3.238,5.706,2.16z"
		/>
	<line id="XMLID_3_" style="fill:none;stroke:#89C2B3;stroke-miterlimit:10;" x1="5.667" y1="18.355" x2="5.667" y2="133.964"/>
</g>
</svg>
