<?xml version="1.0" encoding="utf-8"?>
<!-- Generator: Adobe Illustrator 19.0.0, SVG Export Plug-In . SVG Version: 6.00 Build 0)  -->
<svg version="1.1" xmlns="http://www.w3.org/2000/svg" xmlns:xlink="http://www.w3.org/1999/xlink" x="0px" y="0px"
	 viewBox="0 0 12.1 19.7" style="enable-background:new 0 0 12.1 19.7;" xml:space="preserve">
<style type="text/css">
	.st0{display:none;}
	.st1{display:inline;fill:#89C2B3;}
	.st2{display:inline;fill:#423D3C;}
	.st3{font-family:'RobotoSlab-Light';}
	.st4{font-size:8.5px;}
	.st5{fill:#89C2B3;}
	.st6{fill:#423D3C;}
</style>
<g id="Layer_1" class="st0">
	<path id="XMLID_2_" class="st1" d="M6.2,1.5c5.1,5.5,5,11.7-0.2,16.2C0.7,12.3,0.8,6.9,6.2,1.5z"/>
	<text id="XMLID_1_" transform="matrix(1 0 0 1 4.3936 12.2893)" class="st2 st3 st4">1</text>
</g>
<g id="Layer_2" class="st0">
	<path id="XMLID_836_" class="st1" d="M5.8,1.5C0.8,7.1,0.8,13.2,6,17.7C11.3,12.3,11.3,6.9,5.8,1.5z"/>
	<text id="XMLID_835_" transform="matrix(1 0 0 1 3.7654 12.2722)" class="st2 st3 st4">2</text>
</g>
<g id="Layer_3">
	<path id="XMLID_838_" class="st5" d="M5.8,17.7C0.8,12.2,0.8,6.1,6,1.5C11.3,6.9,11.3,12.3,5.8,17.7z"/>
	<text id="XMLID_837_" transform="matrix(1 0 0 1 3.7654 12.2722)" class="st6 st3 st4">3</text>
</g>
<g id="Layer_4" class="st0">
	<path id="XMLID_840_" class="st1" d="M5.8,1.5C0.8,7.1,0.8,13.2,6,17.7C11.3,12.3,11.3,6.9,5.8,1.5z"/>
	<text id="XMLID_839_" transform="matrix(1 0 0 1 3.2899 12.2722)" class="st2 st3 st4">4</text>
</g>
</svg>
